<svg version="1.0" xmlns="http://www.w3.org/2000/svg" viewBox="0 0 500 500" fill="white"><path d="M232 50.6c-33.4 4.1-59.6 12.7-85.5 28.2-7 4.2-19.8 13.4-23.8 17l-2.8 2.6 59.7 59.7 59.8 59.8 3.9-3.5c2.2-1.8 4.2-3.2 4.5-3 .2.2 1.9-.2 3.7-1 1.9-.8 5.9-1.4 9-1.4 3.1 0 7.1.6 9 1.4 1.8.8 3.6 1.2 3.9.9.3-.3 4 2.9 8.2 7.1 4.2 4.2 7.4 7.9 7.1 8.2-.3.3.1 2.1.9 3.9.8 1.9 1.4 5.9 1.4 9 0 3.1-.6 7.1-1.4 9-.8 1.8-1.2 3.5-1 3.7.2.3-1.2 2.3-3 4.5l-3.5 3.9 59.8 59.8 59.7 59.7 2.6-2.8c1.4-1.5 5-6.2 8-10.3 17.9-24.7 30-53.9 35.5-85.5 2.4-14 2.4-49 0-63-7.3-41.8-25.4-77.7-54.1-107.4C363.3 80 326.5 60.4 284 52.9c-11.1-2-43-3.4-52-2.3zm34.2 50.3c1.5.2 8 6.5 9.2 9 2.2 4.6 1 11.8-2.7 15.9-3.1 3.4-7.5 5.2-12.4 5.2-3.8 0-4.9-.6-9.3-4.8-4.7-4.6-5-5.1-5-10 0-2.8.5-5.4 1-5.7.6-.4.8-1 .6-1.4-.6-.9 4.3-5.8 7.6-7.6 1.9-1 6.3-1.3 11-.6zM95.8 122.7c-3.6 4-12.8 16.7-17 23.8-9.5 15.9-17.6 35.2-22.4 53.2-2.6 9.5-2.6 9.6-.6 11.5 1.9 1.9 2.2 1.9 7.3.5 8.1-2.3 18.2-3 24.7-1.6 3.1.6 6.4 1.2 7.2 1.3 3.5.4 10.7 3.1 13.9 5.2 1.9 1.3 3.8 2.1 4.3 1.8 1.3-.8 17.4 15.8 19 19.6 3.2 7.6 4.2 16.4 2.9 23.9-.7 3.9-1.7 7.3-2.2 7.7-.5.3-.9 1.3-.9 2.4 0 1-3.1 5.1-6.9 9.2-13.5 14.4-27.7 18-46.7 11.6-3.9-1.3-8.2-3.1-9.7-4.1-1.4-.9-2.9-1.7-3.3-1.7-.3 0-1.9-1.1-3.6-2.5-3.6-3-4.9-3.1-7.2-.6-1.7 1.9-1.7 2.5 1.2 13.8 9.3 36.8 26.1 66.4 53.1 93.4s56.6 43.8 93.4 53.1c11.3 2.9 11.9 2.9 13.8 1.2 2.5-2.3 2.4-3.6-.6-7.2-1.4-1.7-2.5-3.3-2.5-3.6 0-.4-.8-1.9-1.7-3.3-1-1.5-2.8-5.8-4.1-9.7-6.4-19-2.8-33.2 11.6-46.7 4.1-3.8 8.2-6.9 9.2-6.9 1.1 0 2.1-.4 2.4-.9.4-.5 3.8-1.5 7.7-2.2 7.5-1.3 16.3-.3 23.9 2.9 3.8 1.6 20.4 17.7 19.6 19-.3.5.5 2.4 1.8 4.3 2.1 3.2 4.8 10.4 5.2 13.9.1.8.7 4.1 1.3 7.2 1.4 6.5.7 16.6-1.6 24.7-1.4 5.1-1.4 5.4.5 7.3 1.9 2 2 2 11.5-.6 18-4.8 37.3-12.9 53.2-22.4 6.8-4.1 23.4-16.1 25.2-18.3 1-1.3-22.1-24.8-139.5-142.2L98.4 119.9l-2.6 2.8z"/></svg>